<svg width="347" height="88" viewBox="0 0 347 88" fill="none" xmlns="http://www.w3.org/2000/svg">
<g clip-path="url(#clip0)">
<path d="M88.7799 53.0129C87.1694 53.0129 85.6931 53.8182 84.8879 55.1603C84.0826 56.5024 84.0826 58.2471 84.8879 59.5892C85.6931 60.9313 87.1694 61.8037 88.7799 61.7366C91.1957 61.6695 93.0747 59.7234 93.0747 57.3748C93.1418 55.0261 91.1957 53.08 88.7799 53.0129Z" fill="#230B59"/>
<path d="M83.2102 64.4208C81.13 64.4208 79.4523 66.0985 79.4523 68.1116C79.4523 70.1919 81.13 71.8695 83.2102 71.8695C85.2905 71.8695 86.9681 70.1919 86.9681 68.1116C86.9681 66.0985 85.2905 64.4208 83.2102 64.4208Z" fill="#230B59"/>
<path d="M75.0601 79.7818C76.838 79.7226 78.2313 78.2334 78.1721 76.4555C78.1129 74.6777 76.6236 73.2844 74.8458 73.3436C73.0679 73.4028 71.6746 74.892 71.7338 76.6699C71.793 78.4478 73.2823 79.841 75.0601 79.7818Z" fill="#230B59"/>
<path d="M65.6287 79.3852C64.1524 79.3852 63.0116 80.526 63.0116 82.0023C63.0116 83.4786 64.1524 84.6194 65.6287 84.6194C67.105 84.6194 68.2458 83.4786 68.2458 82.0023C68.2458 80.526 67.105 79.3852 65.6287 79.3852Z" fill="#230B59"/>
<path d="M56.5024 82.5392C55.2945 82.5392 54.2879 83.5458 54.2879 84.7537C54.2879 85.9615 55.2945 86.9681 56.5024 86.9681C57.7103 86.9681 58.7169 85.9615 58.7169 84.7537C58.784 83.5458 57.7774 82.5392 56.5024 82.5392Z" fill="#230B59"/>
<path d="M47.9801 83.8141C46.9064 83.8141 46.034 84.6865 46.034 85.7602C46.034 86.8339 46.9064 87.7062 47.9801 87.7062C49.0538 87.7062 49.9261 86.8339 49.9261 85.7602C49.859 84.6865 48.9867 83.8141 47.9801 83.8141Z" fill="#230B59"/>
<path d="M39.3906 82.5392C38.1828 82.5392 37.1762 83.5458 37.1762 84.7537C37.1762 85.9615 38.1828 86.9681 39.3906 86.9681C40.5985 86.9681 41.6051 85.9615 41.6051 84.7537C41.6051 83.5458 40.5985 82.5392 39.3906 82.5392Z" fill="#230B59"/>
<path d="M30.2644 79.3181C29.3249 79.3181 28.4525 79.7879 27.9828 80.5931C27.5131 81.3984 27.5131 82.4049 27.9828 83.2102C28.4525 84.0155 29.3249 84.4852 30.2644 84.4852C31.6736 84.4852 32.8815 83.3444 32.8815 81.8681C32.8144 80.526 31.6736 79.3852 30.2644 79.3181Z" fill="#230B59"/>
<path d="M20.9368 73.3458C19.796 73.3458 18.7223 73.9497 18.1183 74.9563C17.5144 75.9629 17.5144 77.1707 18.1183 78.1773C18.7223 79.1839 19.7289 79.7878 20.9368 79.7878C22.6815 79.7878 24.1578 78.3786 24.1578 76.5668C24.1578 74.8221 22.7486 73.3458 20.9368 73.3458Z" fill="#230B59"/>
<path d="M12.6829 64.4208C10.6026 64.4208 8.92499 66.0985 8.92499 68.1787C8.92499 70.259 10.6026 71.9366 12.6829 71.9366C14.7631 71.9366 16.4407 70.259 16.4407 68.1787C16.3736 66.0985 14.7631 64.4208 12.6829 64.4208Z" fill="#230B59"/>
<path d="M7.11313 53.013C5.50261 52.9459 4.0263 53.8183 3.22104 55.1604C2.41578 56.5025 2.41578 58.2472 3.22104 59.5893C4.0263 60.9314 5.50261 61.8038 7.11313 61.7367C9.52891 61.6696 11.4079 59.7235 11.4079 57.3748C11.4079 55.0262 9.46181 53.0801 7.11313 53.013Z" fill="#230B59"/>
<path d="M5.09998 38.7867C2.28157 38.7867 0 41.0683 0 43.8867C0 46.7051 2.28157 48.9866 5.09998 48.9866C7.91839 48.9866 10.2 46.7051 10.2 43.8867C10.1329 41.0683 7.91839 38.7867 5.09998 38.7867Z" fill="#230B59"/>
<path d="M7.11313 25.9025C5.50261 25.9025 4.0263 26.7078 3.22104 28.0499C2.41578 29.392 2.41578 31.1367 3.22104 32.4788C4.0263 33.8209 5.50261 34.6933 7.11313 34.6262C9.52891 34.5591 11.4079 32.613 11.4079 30.2644C11.4079 27.9157 9.46181 25.9696 7.11313 25.9025Z" fill="#230B59"/>
<path d="M12.6829 15.7697C11.3408 15.7697 10.0658 16.4407 9.39471 17.6486C8.72366 18.7894 8.72366 20.2657 9.39471 21.4065C10.0658 22.5473 11.3408 23.2854 12.6829 23.2854C14.696 23.2183 16.3736 21.6078 16.3736 19.5275C16.3065 17.5144 14.696 15.8368 12.6829 15.7697Z" fill="#230B59"/>
<path d="M20.9368 7.85132C19.192 7.85132 17.7157 9.26052 17.7157 11.0724C17.7157 12.8171 19.1249 14.2934 20.9368 14.2934C22.6815 14.2934 24.1578 12.8842 24.1578 11.0724C24.1578 9.32763 22.7486 7.85132 20.9368 7.85132Z" fill="#230B59"/>
<path d="M30.2644 3.08679C28.8552 3.08679 27.6473 4.22758 27.6473 5.70389C27.6473 7.11309 28.788 8.32098 30.2644 8.32098C31.6736 8.32098 32.8815 7.1802 32.8815 5.70389C32.8143 4.29468 31.6736 3.08679 30.2644 3.08679Z" fill="#230B59"/>
<path d="M39.3906 0.671082C38.1156 0.671082 37.1091 1.67766 37.1091 2.95265C37.1091 4.22765 38.1156 5.23422 39.3906 5.23422C40.5985 5.23422 41.6051 4.22765 41.6051 3.01976C41.538 1.67766 40.5985 0.671082 39.3906 0.671082Z" fill="#230B59"/>
<path d="M47.913 0C46.8393 0 45.9669 0.872365 45.9669 1.94605C45.9669 3.01973 46.8393 3.89209 47.913 3.89209C48.9867 3.89209 49.859 3.01973 49.859 1.94605C49.859 0.872365 48.9867 0 47.913 0Z" fill="#230B59"/>
<path d="M56.5024 0.671082C55.2945 0.671082 54.2879 1.67766 54.2879 2.88555C54.2879 4.09344 55.2945 5.10001 56.5024 5.10001C57.7103 5.10001 58.7169 4.09344 58.7169 2.88555C58.784 1.67766 57.7774 0.671082 56.5024 0.671082Z" fill="#230B59"/>
<path d="M65.6287 3.08679C64.6892 3.08679 63.8168 3.55653 63.3471 4.36179C62.8774 5.16705 62.8774 6.17362 63.3471 6.97888C63.8168 7.78414 64.6892 8.25388 65.6287 8.25388C67.0379 8.25388 68.2458 7.11309 68.2458 5.63678C68.2458 4.16047 67.105 3.08679 65.6287 3.08679Z" fill="#230B59"/>
<path d="M74.9563 7.9184C73.2116 7.9184 71.7352 9.3276 71.7352 11.1394C71.7352 12.8842 73.1444 14.3605 74.9563 14.3605C76.701 14.3605 78.1773 12.9513 78.1773 11.1394C78.1773 9.3276 76.701 7.9184 74.9563 7.9184Z" fill="#230B59"/>
<path d="M83.2102 15.7697C81.13 15.7697 79.4523 17.4473 79.4523 19.5275C79.4523 21.6078 81.13 23.2854 83.2102 23.2854C85.2905 23.2854 86.9681 21.6078 86.9681 19.5275C86.9681 17.4473 85.2905 15.7697 83.2102 15.7697Z" fill="#230B59"/>
<path d="M88.7799 25.9025C87.1694 25.9025 85.6931 26.7078 84.8879 28.0499C84.0826 29.392 84.0826 31.1367 84.8879 32.4788C85.6931 33.8209 87.1694 34.6933 88.7799 34.6262C91.1957 34.5591 93.0747 32.613 93.0747 30.2644C93.0747 27.8486 91.1957 25.9025 88.7799 25.9025Z" fill="#230B59"/>
<path d="M68.6484 50.53C67.9103 50.53 67.2392 50.8656 66.9037 51.4695C66.5682 52.0734 66.5682 52.8787 66.9037 53.4826C67.2392 54.0866 67.9103 54.4892 68.6484 54.4221C69.7221 54.355 70.5274 53.4826 70.5274 52.4761C70.5945 51.4695 69.7221 50.5971 68.6484 50.53Z" fill="#230B59"/>
<path d="M63.7498 57.8445C63.0116 57.8445 62.3406 58.18 62.005 58.784C61.6695 59.3879 61.6695 60.1932 62.005 60.7971C62.3406 61.401 63.0787 61.8037 63.7498 61.7366C64.8234 61.6695 65.6287 60.7971 65.6287 59.7905C65.6287 58.784 64.8234 57.9116 63.7498 57.8445Z" fill="#230B59"/>
<path d="M56.4353 62.5419C55.6972 62.5419 54.959 62.9446 54.5564 63.6156C54.1538 64.2867 54.1538 65.0919 54.5564 65.763C54.959 66.434 55.6301 66.8367 56.4353 66.8367C57.6432 66.8367 58.5827 65.8972 58.5827 64.6893C58.5827 63.4814 57.6432 62.5419 56.4353 62.5419Z" fill="#230B59"/>
<path d="M47.8459 63.8168C46.2354 63.8168 44.9604 65.0918 44.9604 66.7024C44.9604 68.3129 46.2354 69.5879 47.8459 69.5879C49.4564 69.5879 50.7314 68.3129 50.7314 66.7024C50.6643 65.0918 49.3893 63.8168 47.8459 63.8168Z" fill="#230B59"/>
<path d="M39.1893 62.0721C37.3775 62.0721 35.9012 63.5485 35.9012 65.3603C35.9012 67.1721 37.3775 68.6484 39.1893 68.6484C41.0012 68.6484 42.4775 67.1721 42.4775 65.3603C42.4775 63.5485 41.0012 62.0721 39.1893 62.0721Z" fill="#230B59"/>
<path d="M31.4051 56.5695C29.392 56.5695 27.7815 58.18 27.7815 60.1932C27.7815 62.2063 29.392 63.8169 31.4051 63.8169C33.4183 63.8169 35.0288 62.2063 35.0288 60.1932C35.0288 58.18 33.4183 56.5695 31.4051 56.5695Z" fill="#230B59"/>
<path d="M26.2381 49.188C24.5604 49.188 23.2183 50.5301 23.2183 52.2077C23.2183 53.8853 24.5604 55.2274 26.2381 55.2274C27.9157 55.2274 29.2578 53.8853 29.2578 52.2077C29.3249 50.5972 27.9157 49.188 26.2381 49.188Z" fill="#230B59"/>
<path d="M25.0302 41.1354C23.7552 41.1354 22.6815 42.2091 22.6815 43.4841C22.6815 44.759 23.7552 45.8327 25.0302 45.8327C26.3052 45.8327 27.3789 44.759 27.3789 43.4841C27.3789 42.142 26.3723 41.1354 25.0302 41.1354Z" fill="#230B59"/>
<path d="M27.1104 33.217C26.0367 33.217 25.1644 34.0893 25.1644 35.163C25.1644 36.2367 26.0367 37.1091 27.1104 37.1091C28.1841 37.1091 29.0565 36.2367 29.0565 35.163C29.1236 34.0893 28.1841 33.217 27.1104 33.217Z" fill="#230B59"/>
<path d="M32.0762 25.9697C31.338 25.9697 30.667 26.3052 30.3315 26.9091C29.9959 27.5131 29.9959 28.3183 30.3315 28.9223C30.667 29.5262 31.4051 29.9289 32.0762 29.8618C33.1499 29.8618 34.0222 28.9894 34.0222 27.9157C33.9551 26.842 33.0828 25.9697 32.0762 25.9697Z" fill="#230B59"/>
<path d="M39.3235 20.8696C38.1156 20.8696 37.1762 21.8091 37.1762 23.017C37.1762 24.2249 38.1156 25.1643 39.3235 25.1643C40.5314 25.1643 41.4709 24.2249 41.4709 23.017C41.4709 21.8762 40.5314 20.8696 39.3235 20.8696Z" fill="#230B59"/>
<path d="M50.8505 21.0793C50.9117 19.4868 49.6703 18.1462 48.0777 18.0851C46.4852 18.0239 45.1447 19.2653 45.0835 20.8578C45.0224 22.4503 46.2638 23.7909 47.8563 23.8521C49.4488 23.9132 50.7893 22.6718 50.8505 21.0793Z" fill="#230B59"/>
<path d="M56.5695 19.0578C54.7577 19.0578 53.2814 20.5341 53.2814 22.3459C53.2814 24.1578 54.7577 25.6341 56.5695 25.6341C58.3814 25.6341 59.8577 24.1578 59.8577 22.3459C59.8577 20.5341 58.3814 19.0578 56.5695 19.0578Z" fill="#230B59"/>
<path d="M64.3537 23.8894C62.3405 23.8894 60.73 25.4999 60.73 27.5131C60.73 29.5262 62.3405 31.1367 64.3537 31.1367C66.3668 31.1367 67.9774 29.5262 67.9774 27.5131C67.9774 25.4999 66.3668 23.8894 64.3537 23.8894Z" fill="#230B59"/>
<path d="M69.5208 32.4117C67.8432 32.4117 66.5011 33.7538 66.5011 35.4314C66.5011 37.109 67.8432 38.4511 69.5208 38.4511C71.1984 38.4511 72.5405 37.109 72.5405 35.4314C72.5405 33.7538 71.1984 32.4117 69.5208 32.4117Z" fill="#230B59"/>
<path d="M61.6024 49.3893C62.6031 49.3893 63.4142 48.5781 63.4142 47.5775C63.4142 46.5768 62.6031 45.7656 61.6024 45.7656C60.6018 45.7656 59.7906 46.5768 59.7906 47.5775C59.7906 48.5781 60.6018 49.3893 61.6024 49.3893Z" fill="#230B59"/>
<path d="M58.0458 51.4024C56.5695 51.4024 55.3616 52.6103 55.3616 54.0866C55.3616 55.5629 56.5695 56.7708 58.0458 56.7708C59.5221 56.7708 60.73 55.5629 60.73 54.0866C60.7971 52.6103 59.5892 51.4024 58.0458 51.4024Z" fill="#230B59"/>
<path d="M51.134 55.0261C49.5906 55.0261 48.3156 56.3011 48.3156 57.8445C48.3156 59.3879 49.5906 60.6629 51.134 60.6629C52.6774 60.6629 53.9524 59.3879 53.9524 57.8445C53.9524 56.3011 52.6774 55.0261 51.134 55.0261Z" fill="#230B59"/>
<path d="M42.9472 54.8248C42.0748 54.8248 41.2025 55.2946 40.7998 56.0998C40.3301 56.9051 40.3301 57.8446 40.7998 58.5827C41.2696 59.388 42.0748 59.8577 42.9472 59.8577C44.3564 59.8577 45.4301 58.7169 45.4301 57.3748C45.4972 55.9656 44.3564 54.8248 42.9472 54.8248Z" fill="#230B59"/>
<path d="M36.9078 50.7314C35.9012 50.7314 35.0959 51.5366 35.0959 52.5432C35.0959 53.5498 35.9012 54.3551 36.9078 54.3551C37.9143 54.3551 38.7196 53.5498 38.7196 52.5432C38.7867 51.6038 37.9143 50.7314 36.9078 50.7314Z" fill="#230B59"/>
<path d="M34.492 45.4301C33.7538 45.4301 33.1499 46.0341 33.1499 46.7722C33.1499 47.5104 33.7538 48.1143 34.492 48.1143C35.2301 48.1143 35.8341 47.5104 35.8341 46.7722C35.8341 46.0341 35.2301 45.4301 34.492 45.4301Z" fill="#230B59"/>
<path d="M34.3578 38.5183C33.3512 38.5183 32.5459 39.3236 32.5459 40.3301C32.5459 41.3367 33.3512 42.142 34.3578 42.142C35.3643 42.142 36.1696 41.3367 36.1696 40.3301C36.1696 39.3236 35.3643 38.5183 34.3578 38.5183Z" fill="#230B59"/>
<path d="M37.9143 31.0696C36.438 31.0696 35.2301 32.2775 35.2301 33.7538C35.2301 35.2302 36.438 36.438 37.9143 36.438C39.3906 36.438 40.5985 35.2302 40.5985 33.7538C40.5985 32.2775 39.3906 31.0696 37.9143 31.0696Z" fill="#230B59"/>
<path d="M44.8262 27.1775C43.2827 27.1775 42.0078 28.4525 42.0078 29.9959C42.0078 31.5393 43.2827 32.8143 44.8262 32.8143C46.3696 32.8143 47.6446 31.5393 47.6446 29.9959C47.6446 28.4525 46.3696 27.1775 44.8262 27.1775Z" fill="#230B59"/>
<path d="M53.013 28.0499C52.0735 28.0499 51.2682 28.5196 50.7985 29.2578C50.3287 30.063 50.3287 31.0025 50.7985 31.8077C51.2682 32.613 52.1406 33.0827 53.013 33.0156C54.3551 32.9485 55.4287 31.8749 55.4287 30.5328C55.4287 29.1907 54.3551 28.117 53.013 28.0499Z" fill="#230B59"/>
<path d="M58.9853 33.4183C57.9787 33.4183 57.1735 34.2235 57.1735 35.2301C57.1735 36.2367 57.9787 37.0419 58.9853 37.0419C59.9919 37.0419 60.7971 36.2367 60.7971 35.2301C60.8642 34.2235 60.059 33.4183 58.9853 33.4183Z" fill="#230B59"/>
<path d="M61.5353 39.7933C60.7971 39.7933 60.1932 40.3972 60.1932 41.1354C60.1932 41.8735 60.7971 42.4775 61.5353 42.4775C62.2734 42.4775 62.8774 41.8735 62.8774 41.1354C62.8774 40.3972 62.2734 39.7933 61.5353 39.7933Z" fill="#230B59"/>
<path d="M70.7287 41.8735C69.4537 41.8735 68.38 42.9472 68.38 44.2222C68.38 45.4972 69.4537 46.5709 70.7287 46.5709C72.0037 46.5709 73.0774 45.4972 73.0774 44.2222C73.0774 42.9472 72.0037 41.8735 70.7287 41.8735Z" fill="#230B59"/>
<path d="M80.4589 44.7591C79.0497 44.7591 77.976 45.8999 77.976 47.242C77.976 48.6512 79.1168 49.7249 80.4589 49.7249C81.8681 49.7249 82.9418 48.5841 82.9418 47.242C82.9418 45.8999 81.8681 44.7591 80.4589 44.7591Z" fill="#230B59"/>
<path d="M77.976 53.5498C76.701 53.5498 75.6273 54.6235 75.6273 55.8985C75.6273 57.1735 76.701 58.2472 77.976 58.2472C79.251 58.2472 80.3247 57.1735 80.3247 55.8985C80.3247 54.6235 79.3181 53.5498 77.976 53.5498Z" fill="#230B59"/>
<path d="M73.7484 60.9314C72.6747 60.9314 71.7352 61.8038 71.7352 62.9445C71.7352 64.0182 72.6076 64.9577 73.7484 64.9577C74.8221 64.9577 75.6944 64.0182 75.6944 62.9445C75.6944 61.8709 74.8221 60.9985 73.7484 60.9314Z" fill="#230B59"/>
<path d="M68.6484 66.434C68.0445 66.434 67.4405 66.7695 67.105 67.3063C66.7695 67.8432 66.7695 68.5142 67.105 69.0511C67.4405 69.5879 67.9774 69.9234 68.6484 69.9234C69.5879 69.9234 70.3932 69.1853 70.3932 68.1787C70.3932 67.2392 69.5879 66.434 68.6484 66.434Z" fill="#230B59"/>
<path d="M63.28 70.4603C62.4748 70.4603 61.8037 71.1313 61.8037 71.9366C61.8037 72.7418 62.4748 73.4129 63.28 73.4129C64.0853 73.4129 64.7563 72.7418 64.7563 71.9366C64.7563 71.1313 64.0853 70.4603 63.28 70.4603Z" fill="#230B59"/>
<path d="M57.1735 72.7418C56.234 72.7418 55.4287 73.48 55.4287 74.4866C55.4287 75.426 56.1669 76.2313 57.1735 76.2313C58.1129 76.2313 58.9182 75.4931 58.9182 74.4866C58.8511 73.48 58.1129 72.7418 57.1735 72.7418Z" fill="#230B59"/>
<path d="M49.9932 73.8826C48.9195 73.8826 47.9801 74.7549 47.9801 75.8957C47.9801 76.9694 48.8524 77.9089 49.9932 77.9089C51.0669 77.9089 52.0064 77.0365 52.0064 75.8957C51.9393 74.7549 51.0669 73.8826 49.9932 73.8826Z" fill="#230B59"/>
<path d="M41.8064 73.0774C40.3972 73.0774 39.2564 74.2182 39.2564 75.6274C39.2564 77.0366 40.3972 78.1774 41.8064 78.1774C43.2156 78.1774 44.3564 77.0366 44.3564 75.6274C44.3564 74.2182 43.2156 73.0774 41.8064 73.0774Z" fill="#230B59"/>
<path d="M33.1499 69.9905C31.4722 69.9905 30.1301 71.3326 30.1301 73.0103C30.1301 74.6879 31.4722 76.03 33.1499 76.03C34.8275 76.03 36.1696 74.6879 36.1696 73.0103C36.2367 71.3326 34.8275 69.9905 33.1499 69.9905Z" fill="#230B59"/>
<path d="M25.567 64.2195C24.292 64.2195 23.0841 64.8905 22.4131 65.9642C21.742 67.105 21.742 68.4471 22.4131 69.5879C23.0841 70.7287 24.292 71.3997 25.567 71.3326C27.5131 71.2655 29.0565 69.7221 29.0565 67.776C29.0565 65.8971 27.5131 64.2866 25.567 64.2195Z" fill="#230B59"/>
<path d="M19.192 55.6301C17.0447 55.6301 15.2999 57.3748 15.2999 59.5222C15.2999 61.6695 17.0447 63.4142 19.192 63.4142C21.3394 63.4142 23.0841 61.6695 23.0841 59.5222C23.0841 57.3077 21.3394 55.6301 19.192 55.6301Z" fill="#230B59"/>
<path d="M18.6751 49.911C18.796 48.2104 17.5154 46.7339 15.8148 46.613C14.1143 46.4922 12.6378 47.7728 12.5169 49.4733C12.396 51.1739 13.6766 52.6504 15.3772 52.7712C17.0777 52.8921 18.5543 51.6115 18.6751 49.911Z" fill="#230B59"/>
<path d="M17.884 40.5481C17.9598 39.1789 16.9113 38.0075 15.5421 37.9317C14.1729 37.8558 13.0015 38.9043 12.9257 40.2735C12.8498 41.6427 13.8983 42.8142 15.2675 42.89C16.6367 42.9658 17.8082 41.9173 17.884 40.5481Z" fill="#230B59"/>
<path d="M17.917 29.392C16.642 29.392 15.5684 30.4656 15.5684 31.7406C15.5684 33.0156 16.642 34.0893 17.917 34.0893C19.192 34.0893 20.2657 33.0156 20.2657 31.7406C20.2657 30.4656 19.192 29.392 17.917 29.392Z" fill="#230B59"/>
<path d="M22.1446 22.7487C21.4065 22.7487 20.7354 23.0842 20.3999 23.7552C20.0644 24.3592 20.0644 25.1644 20.3999 25.7684C20.7354 26.3723 21.4736 26.775 22.1446 26.775C23.2183 26.775 24.0907 25.8355 24.0907 24.7618C24.0907 23.621 23.2183 22.7487 22.1446 22.7487Z" fill="#230B59"/>
<path d="M27.2446 17.7828C26.3052 17.7828 25.4999 18.521 25.4999 19.5276C25.4999 20.467 26.2381 21.2723 27.2446 21.2723C28.2512 21.2723 28.9894 20.5341 28.9894 19.5276C28.9894 18.5881 28.1841 17.7828 27.2446 17.7828Z" fill="#230B59"/>
<path d="M32.613 14.2933C31.8078 14.2933 31.1367 14.9644 31.1367 15.7696C31.1367 16.5749 31.8078 17.246 32.613 17.246C33.4183 17.246 34.0893 16.5749 34.0893 15.7696C34.0893 14.8973 33.4183 14.2933 32.613 14.2933Z" fill="#230B59"/>
<path d="M38.7196 11.5421C37.7801 11.5421 36.9749 12.2802 36.9749 13.2868C36.9749 14.2263 37.713 15.0315 38.7196 15.0315C39.6591 15.0315 40.4643 14.2934 40.4643 13.2868C40.4643 12.2802 39.6591 11.5421 38.7196 11.5421Z" fill="#230B59"/>
<path d="M45.8998 9.7973C45.1617 9.7973 44.4906 10.1328 44.1551 10.8039C43.8196 11.4078 43.8196 12.2131 44.1551 12.817C44.4906 13.421 45.2288 13.8236 45.8998 13.8236C46.9735 13.8236 47.8459 12.8841 47.8459 11.8105C47.8459 10.7368 46.9735 9.86441 45.8998 9.7973Z" fill="#230B59"/>
<path d="M54.0866 9.46179C53.1472 9.46179 52.2748 9.93153 51.8051 10.7368C51.3353 11.542 51.3353 12.5486 51.8051 13.3539C52.2748 14.1591 53.1472 14.6289 54.0866 14.6289C55.4958 14.6289 56.6366 13.421 56.6366 12.0118C56.6366 10.6026 55.4958 9.46179 54.0866 9.46179Z" fill="#230B59"/>
<path d="M62.4748 11.4078C60.7971 11.4078 59.3879 12.7499 59.3879 14.4947C59.3879 16.1723 60.73 17.5815 62.4748 17.5815C64.1524 17.5815 65.5616 16.2394 65.5616 14.4947C65.5616 12.817 64.1524 11.4078 62.4748 11.4078Z" fill="#230B59"/>
<path d="M70.3932 16.2394C68.38 16.2394 66.8366 17.8499 66.8366 19.7959C66.8366 21.742 68.4471 23.3525 70.3932 23.3525C72.4063 23.3525 73.9497 21.742 73.9497 19.7959C73.9497 17.8499 72.3392 16.2394 70.3932 16.2394Z" fill="#230B59"/>
<path d="M76.701 24.292C75.2918 24.292 74.0168 25.0301 73.2787 26.238C72.5405 27.4459 72.5405 28.9222 73.2787 30.1301C74.0168 31.338 75.2918 32.0762 76.701 32.0762C78.8484 32.0091 80.526 30.3314 80.526 28.1841C80.4589 26.1038 78.7813 24.3591 76.701 24.292Z" fill="#230B59"/>
<path d="M80.2576 34.9617C79.1839 34.9617 78.1102 35.4986 77.5734 36.438C77.0366 37.3775 77.0366 38.5854 77.5734 39.5249C78.1102 40.4643 79.1839 41.0683 80.2576 41.0012C81.9352 40.9341 83.2102 39.592 83.2102 37.9815C83.2102 36.3709 81.9352 35.0288 80.2576 34.9617Z" fill="#230B59"/>
<path d="M95.8931 43.8196C95.8931 46.638 93.6115 48.9196 90.7931 48.9196C87.9747 48.9196 85.6931 46.638 85.6931 43.8196C85.6931 41.0012 87.9747 38.7196 90.7931 38.7196C93.6115 38.7867 95.8931 41.0683 95.8931 43.8196Z" fill="#230B59"/>
<path d="M347 51.6709C347 46.8393 344.249 44.2893 339.954 42.5446C336.599 41.2025 333.646 40.0617 331.365 39.1223C329.15 38.2499 327.204 36.7065 327.204 35.0288C327.204 32.7473 330.022 31.4052 333.78 31.4052C338.209 31.4052 341.699 32.0091 344.987 32.3446H345.121C345.658 32.3446 345.993 31.942 345.993 31.4052V27.6473C345.993 27.1776 345.591 26.7749 345.054 26.7078C343.309 26.3052 338.88 25.3657 334.049 25.3657C324.654 25.3657 320.158 29.392 320.158 35.0288C320.158 38.5854 321.701 42.0749 326.13 43.8867C330.559 45.6985 339.618 47.8459 339.618 51.6038C339.618 54.5564 338.276 56.1669 333.713 56.1669C329.016 56.1669 324.251 55.4959 322.238 55.2275H322.104C321.567 55.2275 321.165 55.6301 321.165 56.1669V59.7906C321.165 60.3274 321.634 60.7301 322.104 60.7972C324.52 61.334 329.083 62.1393 333.579 62.1393C343.846 62.2735 347 56.7709 347 51.6709Z" fill="#230B59"/>
<path d="M247.685 31.6736H237.552V60.7971C237.552 61.334 237.082 61.8037 236.545 61.8037H231.512C230.975 61.8037 230.506 61.334 230.506 60.7971V31.6736H220.373C219.836 31.6736 219.366 31.338 219.366 30.7341V26.7078C219.366 26.1709 219.836 25.7683 220.373 25.7683H247.685C248.221 25.7683 248.691 26.1709 248.691 26.7078V30.7341C248.691 31.338 248.221 31.6736 247.685 31.6736Z" fill="#230B59"/>
<path d="M214.937 47.913V26.7749C214.937 26.2381 214.468 25.8354 213.931 25.8354H208.898C208.361 25.8354 207.891 26.2381 207.891 26.7749V47.8459C207.891 53.6169 205.207 56.3682 199.772 56.3682C194.336 56.3682 191.652 53.6169 191.652 47.8459V26.7749C191.652 26.2381 191.182 25.8354 190.645 25.8354H185.612C185.076 25.8354 184.606 26.2381 184.606 26.7749V47.8459C184.606 58.6498 191.652 62.2064 199.772 62.2064C207.891 62.2064 214.937 58.7169 214.937 47.913Z" fill="#230B59"/>
<path d="M260.367 46.1682H276.607C277.144 46.1682 277.613 45.6985 277.613 45.1616V41.4708C277.613 40.934 277.144 40.4643 276.607 40.4643H260.367V35.834C260.367 31.6064 260.502 31.4722 264.394 31.4722H277.211C277.748 31.4722 278.217 31.0025 278.217 30.4656V27.2446C278.217 26.5064 277.949 26.3051 277.211 26.1709C275.6 25.9025 272.312 25.4328 266.273 25.4328C257.885 25.4328 253.389 25.3656 253.389 35.834V51.8721C253.389 62.3405 257.885 62.2734 266.273 62.2734C272.312 62.2734 275.6 61.8037 277.211 61.5352C277.949 61.4681 278.217 61.1997 278.217 60.4616V57.2405C278.217 56.7037 277.748 56.2339 277.211 56.2339H264.394C260.569 56.2339 260.367 56.0997 260.367 51.8721V46.1682Z" fill="#230B59"/>
<path d="M160.18 46.1682H176.419C176.956 46.1682 177.426 45.6985 177.426 45.1616V41.4708C177.426 40.934 176.956 40.4643 176.419 40.4643H160.18V35.834C160.18 31.6064 160.314 31.4722 164.206 31.4722H177.023C177.56 31.4722 178.03 31.0025 178.03 30.4656V27.2446C178.03 26.5064 177.761 26.3051 177.023 26.1709C175.412 25.9025 172.124 25.4328 166.085 25.4328C157.697 25.4328 153.201 25.3656 153.201 35.834V51.8721C153.201 62.3405 157.697 62.2734 166.085 62.2734C172.124 62.2734 175.412 61.8037 177.023 61.5352C177.761 61.4681 178.03 61.1997 178.03 60.4616V57.2405C178.03 56.7037 177.56 56.2339 177.023 56.2339H164.206C160.381 56.2339 160.18 56.0997 160.18 51.8721V46.1682Z" fill="#230B59"/>
<path d="M315.93 60.7971L308.012 47.2419C312.173 45.6314 314.857 42.6788 314.857 37.3104V36.9078C314.857 28.2512 307.676 25.4328 299.825 25.4328C296.134 25.4328 290.43 25.7012 287.813 26.1039C286.807 26.2381 286.203 26.6407 286.203 27.6473V60.8642C286.203 61.4011 286.673 61.8708 287.209 61.8708H292.309C292.846 61.8708 293.249 61.4011 293.249 60.8642V48.3156C294.39 48.3827 298.483 48.5169 299.825 48.5169H300.966L308.28 60.7971C308.549 61.2669 308.75 61.8037 309.287 61.8037H315.461C315.863 61.8037 316.065 61.5353 316.065 61.1998C316.065 61.0656 315.997 60.9313 315.93 60.7971ZM307.811 37.3104C307.811 41.7393 304.992 42.7459 299.758 42.7459C298.886 42.7459 293.987 42.6117 293.182 42.6117V31.6736C294.054 31.5394 298.684 31.4723 299.758 31.4723C304.858 31.4723 307.811 33.0828 307.811 36.9078V37.3104Z" fill="#230B59"/>
<path d="M147.698 60.7971L139.713 47.2419C143.873 45.6314 146.557 42.6788 146.557 37.3104V36.9078C146.557 28.2512 139.377 25.4328 131.526 25.4328C127.835 25.4328 122.131 25.7012 119.514 26.1039C118.507 26.2381 117.904 26.6407 117.904 27.6473V60.8642C117.904 61.4011 118.373 61.8708 118.91 61.8708H124.01C124.547 61.8708 124.95 61.4011 124.95 60.8642V48.3156C126.09 48.3827 130.184 48.5169 131.526 48.5169H132.667L139.981 60.7971C140.249 61.2669 140.451 61.8037 140.988 61.8037H147.161C147.564 61.8037 147.765 61.5353 147.765 61.1998C147.765 61.0656 147.765 60.9313 147.698 60.7971ZM139.578 37.3104C139.578 41.7393 136.76 42.7459 131.593 42.7459C130.721 42.7459 125.822 42.6117 125.017 42.6117V31.6736C125.889 31.5394 130.519 31.4723 131.593 31.4723C136.693 31.4723 139.578 33.0828 139.578 36.9078V37.3104Z" fill="#230B59"/>
</g>
<defs>
<clipPath id="clip0">
<rect width="347" height="87.6391" fill="white"/>
</clipPath>
</defs>
</svg>
