<svg width="347" height="65" viewBox="0 0 347 65" fill="none" xmlns="http://www.w3.org/2000/svg">
<path d="M0 0H25.4395C30.2851 0 33.9193 1.21141 36.6113 3.23041C39.5725 5.65322 41.1878 9.15283 41.1878 13.46C41.1878 18.4403 39.1687 21.5361 35.1307 23.4205V23.6897C40.5148 25.4395 43.6105 30.2851 43.6105 36.0729C43.6105 41.5915 41.4569 45.8988 37.9573 48.5908C34.9961 50.7444 31.2273 51.6866 26.1125 51.6866H0V0ZM22.8821 20.1901C25.5741 20.1901 27.5931 18.7095 27.5931 15.6137C27.5931 12.6524 25.5741 11.1718 22.7475 11.1718H13.9985V20.0555H22.8821V20.1901ZM24.0935 40.2455C27.1893 40.2455 29.4775 38.3611 29.4775 34.9961C29.4775 31.3619 27.0547 29.7467 24.0935 29.7467H14.133V40.3801H24.0935V40.2455Z" fill="#230B59"/>
<path d="M45.8988 0H59.2242V51.8212H45.8988V0Z" fill="#230B59"/>
<path d="M61.9162 33.3809C61.9162 21.6707 69.4538 13.8638 81.1641 13.8638C92.8743 13.8638 100.277 21.8053 100.277 33.3809C100.277 45.0911 92.8743 52.898 81.1641 52.898C69.4538 52.898 61.9162 45.0911 61.9162 33.3809ZM86.9519 33.3809C86.9519 26.9201 84.9329 22.8821 80.8949 22.8821C76.8569 22.8821 74.9725 26.9201 74.9725 33.3809C74.9725 39.8417 76.8569 44.0143 80.8949 44.0143C84.9329 43.8797 86.9519 39.8417 86.9519 33.3809Z" fill="#230B59"/>
<path d="M101.758 33.3809C101.758 21.6707 109.296 13.8638 121.006 13.8638C132.716 13.8638 139.984 21.6707 139.984 33.3809C139.984 45.0911 132.581 52.898 120.871 52.898C109.296 52.898 101.758 45.0911 101.758 33.3809ZM126.794 33.3809C126.794 26.9201 124.775 22.8821 120.737 22.8821C116.699 22.8821 114.814 26.9201 114.814 33.3809C114.814 39.8417 116.699 44.0143 120.737 44.0143C124.775 43.8797 126.794 39.8417 126.794 33.3809Z" fill="#230B59"/>
<path d="M142.676 14.8061H155.06V20.3247H155.329C157.752 16.0175 161.117 13.7293 166.501 13.7293C171.212 13.7293 174.711 16.0175 176.461 20.0555H176.73C179.692 15.2099 183.595 13.7293 188.171 13.7293C196.786 13.7293 200.42 20.0555 200.42 28.5353V51.6866H187.498V30.8235C187.498 27.0547 186.287 24.6319 183.057 24.6319C179.826 24.6319 178.211 27.5931 178.211 31.6311V51.6866H165.289V30.8235C165.289 27.0547 164.078 24.6319 160.848 24.6319C157.617 24.6319 156.002 27.5931 156.002 31.6311V51.6866H142.676V14.8061Z" fill="#230B59"/>
<path d="M216.707 46.841H216.572V51.6866H204.189V0H217.111V18.5749H217.38C219.803 15.3445 223.168 13.5946 227.879 13.5946C237.166 13.5946 242.55 21.9399 242.55 33.1117C242.55 45.6296 236.762 52.898 227.071 52.898C223.033 52.898 218.86 51.0136 216.707 46.841ZM229.225 32.9771C229.225 27.0547 227.071 23.1513 223.168 23.1513C219.13 23.1513 216.707 27.0547 216.707 32.9771C216.707 38.8995 219.264 42.803 223.168 42.803C227.071 42.803 229.225 39.0341 229.225 32.9771Z" fill="#230B59"/>
<path d="M244.031 33.2463C244.031 21.6707 251.703 13.7293 262.74 13.7293C268.259 13.7293 272.431 15.4791 275.662 18.5749C279.969 22.7475 281.853 29.2083 281.719 36.746H256.952C257.491 41.3224 259.644 43.7452 263.548 43.7452C265.836 43.7452 267.855 42.6684 268.663 40.2456H281.18C279.027 48.7254 272.431 52.898 263.144 52.898C251.703 52.7634 244.031 44.9566 244.031 33.2463ZM256.952 29.3429H268.797C268.528 24.9011 266.105 22.6129 263.009 22.6129C259.375 22.4783 257.356 25.0357 256.952 29.3429Z" fill="#230B59"/>
<path d="M296.39 21.1323H296.659C299.351 16.0175 302.851 13.9984 307.293 13.9984C308.37 13.9984 309.043 14.133 309.446 14.4022V25.7087H309.177C301.505 24.3627 297.063 27.9969 297.063 36.3421V51.8212H284.007V14.806H296.39V21.1323Z" fill="#230B59"/>
<path d="M310.792 51.8212H323.31C323.849 53.4364 325.464 54.917 328.56 54.917C332.732 54.917 334.213 52.3596 334.213 48.4562V45.7642H333.944C331.925 48.187 329.098 49.9368 325.06 49.9368C317.119 49.9368 310.119 44.0144 310.119 32.4387C310.119 21.8053 315.773 13.5947 324.387 13.5947C329.367 13.5947 332.329 15.6137 334.348 18.7095H334.617V14.6715H347V46.7064C347 52.6288 344.981 57.2052 341.885 59.8972C338.655 62.7238 334.078 63.9352 328.829 63.9352C318.868 64.0698 312.004 60.0318 310.792 51.8212ZM334.751 31.9003C334.751 27.3239 332.598 23.5551 328.829 23.5551C325.195 23.5551 322.907 26.7855 322.907 31.9003C322.907 36.8805 325.195 40.3802 328.829 40.3802C332.463 40.3802 334.751 36.7459 334.751 31.9003Z" fill="#230B59"/>
</svg>
