<svg width="428" height="58" viewBox="0 0 428 58" fill="none" xmlns="http://www.w3.org/2000/svg">
<path d="M31.9265 6.70926C31.9265 2.08223 27.5308 0.925476 24.0605 0.925476V1.61953C26.1427 1.61953 27.7622 2.31358 27.7622 3.93304C27.7622 4.85845 27.0681 6.24656 24.9859 6.24656C23.3665 6.24656 19.8962 5.32115 17.3514 4.39575C14.3438 3.23899 11.5676 2.31358 9.25405 2.31358C4.62703 2.31358 1.38811 5.78385 1.38811 9.71683C1.38811 13.1871 3.93297 14.3439 4.85838 14.8066L5.08973 14.3439C4.62703 13.8812 3.93297 13.4184 3.93297 12.0303C3.93297 11.1049 4.85838 9.48548 7.17189 9.48548C9.25405 9.48548 12.0303 10.4109 15.7319 11.5676C18.9708 12.493 22.4411 13.1871 24.2919 13.4184V20.5903L20.8216 23.5979V23.8293L24.2919 26.8368V36.7849C22.4411 37.9417 20.3589 38.173 18.5081 38.173C15.0378 38.173 12.0303 37.2476 9.4854 34.4714L18.9708 29.8444V13.8812L7.40324 18.9709C8.32865 15.9633 10.8735 13.8812 13.4184 12.493L13.187 11.799C6.24649 13.6498 0 20.1276 0 27.9936C0 37.2476 7.63459 44.1882 16.1946 44.1882C25.4486 44.1882 31.4638 36.7849 31.4638 29.1503H31.0011C29.613 32.1579 27.5308 34.9341 24.9859 36.3222V26.8368L28.6876 23.8293V23.5979L24.9859 20.5903V13.4184C28.4562 13.4184 31.9265 11.1049 31.9265 6.70926ZM11.7989 32.1579L9.0227 33.546C7.40324 31.4639 6.47784 28.6876 6.47784 24.7547C6.47784 23.1352 6.47784 21.2844 6.94054 19.8963L11.7989 17.8141V32.1579ZM36.3222 37.479L33.3146 39.7925L33.7773 40.2552L35.1654 39.0984L40.2551 43.7255L47.1957 39.0984L46.9643 38.6357L45.1135 39.7925L42.8 37.479V21.7471L44.6508 20.359L48.5838 23.5979V37.7103C48.5838 46.5017 46.733 47.8898 42.8 49.2779V49.972C49.2778 50.2033 55.293 48.1212 55.293 36.7849V21.5157L57.3751 19.8963L56.9124 19.4336L55.0616 20.8217L49.2778 15.9633L42.8 20.8217V1.85088H42.3373L34.24 7.40331V7.86602C35.1654 8.32872 36.5535 8.79142 36.5535 11.3363L36.3222 37.479ZM78.6595 34.9341L72.8757 39.3298L67.0919 34.7028V31.9266L77.9654 24.5233V24.292L72.413 15.9633L60.3827 22.4412V37.7103L58.0692 39.5612L58.5319 40.0239L60.6141 38.4044L68.48 44.1882L78.8908 35.8595L78.6595 34.9341ZM67.0919 31.0012V19.6649L67.5546 19.4336L72.6443 27.5309L67.0919 31.0012ZM122.848 4.6271C122.848 3.93304 122.616 3.23899 122.385 2.54494H121.922C121.228 4.39575 120.303 5.32115 117.989 5.32115C115.907 5.32115 114.519 4.1644 113.594 3.23899L106.884 10.8736L107.347 11.3363L109.661 9.25412C111.049 10.4109 112.205 11.3363 115.444 11.5676V30.7698L101.795 7.40331C100.638 5.5525 99.0184 3.00764 95.7795 3.00764C92.0778 3.00764 88.8389 6.24656 89.3016 11.3363H89.9957C90.227 9.94818 90.9211 8.32872 92.5405 8.32872C93.6973 8.32872 94.854 9.48548 95.5481 10.6422V18.2768C91.3838 18.2768 88.6076 20.1276 88.6076 23.5979C88.6076 25.4487 89.533 28.2249 92.3092 28.919V28.4563C91.8465 27.9936 91.6151 27.5309 91.6151 26.8368C91.6151 25.6801 92.5405 24.7547 94.16 24.7547H95.3168V34.4714C90.4584 34.4714 86.5254 37.2476 86.5254 41.8747C86.5254 46.2703 90.227 48.3525 94.3913 48.1212V47.6585C91.8465 47.4271 90.6897 46.2703 90.6897 44.6509C90.6897 42.5687 92.0778 41.6433 93.9286 41.6433C95.7795 41.6433 97.3989 42.8001 98.5557 44.1882L105.265 36.7849L104.802 36.3222L103.183 38.173C100.638 35.8595 99.2497 35.1655 96.2422 34.7028V11.5676L114.75 43.9568H116.138V11.5676C119.609 11.3363 122.848 8.56007 122.848 4.6271ZM139.736 34.9341L133.952 39.3298L128.169 34.7028V31.9266L139.042 24.5233V24.292L133.49 15.9633L121.459 22.4412V37.7103L119.146 39.5612L119.609 40.0239L121.691 38.4044L129.557 44.1882L139.968 35.8595L139.736 34.9341ZM128.169 31.0012V19.6649L128.631 19.4336L133.721 27.5309L128.169 31.0012ZM177.446 18.5082L175.827 19.6649L171.431 15.9633L166.342 20.5903L168.424 22.6725V40.0239L162.871 36.5536V22.2098L164.722 21.053L159.401 15.9633L154.311 20.5903L156.394 22.6725V39.3298L155.699 39.7925L150.841 36.3222V22.4412C150.841 19.2022 149.222 18.2768 147.371 17.1201C145.751 15.9633 144.826 15.2693 144.826 13.6498C144.826 12.2617 146.214 11.5676 146.908 11.1049V10.6422C145.057 10.6422 140.199 12.493 140.199 16.8887C140.199 19.2022 141.356 20.1276 142.512 21.2844C143.669 22.4412 144.826 23.3666 144.826 25.4487V38.8671L142.281 40.7179L142.744 41.1806L145.057 39.3298L150.378 43.9568L156.162 40.0239L162.64 43.9568L174.902 36.7849V21.2844L177.909 18.9709L177.446 18.5082ZM220.478 5.78385L218.164 7.86602L213.075 3.23899L205.44 8.79142V3.70169H204.746L204.977 41.1806C204.283 41.1806 202.201 40.7179 200.582 40.2552L200.119 9.02277C200.119 6.70926 198.499 3.47034 194.335 3.47034C190.171 3.47034 187.395 6.70926 187.395 9.94818H188.089C188.32 8.56007 189.014 7.40331 190.402 7.40331C191.79 7.40331 192.947 8.32872 192.947 11.3363V20.359C188.783 20.5903 186.238 22.9039 186.238 25.9114C186.238 27.7622 187.163 30.5385 189.939 30.5385V30.0757C189.014 29.613 188.783 28.919 188.783 28.4563C188.783 27.0682 189.939 26.6055 191.79 26.6055H192.716V40.9493C189.245 42.106 187.857 44.6509 187.857 47.4271C187.857 51.3601 190.865 54.1363 195.492 54.1363C198.731 54.1363 201.507 53.6736 204.283 52.9795C206.597 52.5168 209.604 51.8228 210.992 51.8228C212.843 51.8228 213.537 52.7482 213.537 53.9049C213.537 55.5244 212.843 56.2184 211.918 56.4498V56.9125C215.619 56.2185 217.933 53.9049 217.933 50.4347C217.933 46.9644 214.463 44.8822 210.761 44.8822C208.91 44.8822 204.977 45.5763 202.201 46.039C198.962 46.733 195.723 47.1957 194.798 47.1957C193.178 47.1957 191.328 46.5017 191.328 44.1882C191.328 42.3374 192.947 40.7179 196.88 40.7179C198.962 40.7179 201.507 40.9493 204.052 41.6433C206.828 42.3374 209.373 43.0314 211.686 43.0314C215.157 43.0314 218.164 41.8747 218.164 37.0163V8.56007L220.941 6.24656L220.478 5.78385ZM210.992 19.8963C210.298 20.5903 209.373 21.2844 208.216 21.2844C207.059 21.2844 205.903 20.5903 205.44 19.8963V9.71683L207.754 8.09737L210.992 11.1049V19.8963ZM210.992 26.8368C210.53 26.3741 209.373 25.6801 208.216 25.6801C207.059 25.6801 205.903 26.3741 205.44 26.8368V20.8217C205.903 21.2844 207.059 21.9785 208.216 21.9785C209.373 21.9785 210.53 21.2844 210.992 20.8217V26.8368ZM210.992 37.7103C210.992 39.5611 209.836 41.412 207.291 41.412H205.44V27.7622C205.903 27.2995 207.059 26.6055 208.216 26.6055C209.373 26.6055 210.298 27.2995 210.992 27.7622V37.7103ZM242.688 21.2844L235.284 15.9633L223.948 22.4412V37.479L221.635 39.3298L221.866 39.7925L223.717 38.4044L231.12 43.9568L242.688 37.0163V21.2844ZM230.195 35.8595V19.2022L235.978 23.3666V39.7925L230.195 35.8595ZM264.666 16.426H264.203C263.509 16.8887 262.815 17.3514 262.121 17.3514C261.196 17.3514 260.039 16.8887 259.576 16.1947H259.114L255.181 20.5903L251.248 16.1947L244.307 20.8217L244.538 21.2844L246.389 20.1276L248.703 22.6725V37.2476L245.695 39.5612L246.158 40.0239L247.546 38.8671L253.098 43.4941L260.27 38.6357L260.039 38.173L257.957 39.3298L255.181 37.0163V20.8217C256.337 21.9785 257.725 23.1352 259.345 23.1352C262.584 23.3666 264.435 20.1276 264.666 16.426ZM292.428 38.6357L284.562 43.9568L273.92 27.7622L281.555 15.9633H282.017C282.943 16.8887 284.331 17.8141 285.95 17.8141C287.57 17.8141 288.726 16.8887 289.421 15.9633H289.883C289.652 20.5903 286.413 23.3666 284.099 23.3666C281.786 23.3666 280.629 22.2098 279.241 21.5157L278.547 22.6725L290.115 39.7925L292.428 38.4044V38.6357ZM266.979 37.479L263.972 39.7925L264.435 40.2552L265.823 39.0984L270.912 43.7255L277.853 39.0984L277.39 38.6357L275.539 39.7925L273.226 37.479V1.85088H272.995L264.666 7.40331V7.86602C265.591 8.32872 266.979 8.56007 266.979 11.3363V37.479ZM330.832 6.70926C330.832 2.08223 326.437 0.925476 322.966 0.925476V1.61953C325.049 1.61953 326.668 2.31358 326.668 3.93304C326.668 4.85845 325.974 6.24656 323.892 6.24656C322.272 6.24656 318.802 5.32115 316.257 4.39575C313.25 3.47034 310.474 2.54494 308.16 2.54494C303.533 2.54494 300.294 6.01521 300.294 9.94818C300.294 13.4184 302.839 14.5752 303.764 15.0379L303.996 14.5752C303.302 14.1125 302.608 13.6498 302.608 12.2617C302.608 11.3363 303.533 9.71683 305.846 9.71683C307.929 9.71683 310.705 10.6422 314.406 11.799C317.645 12.7244 321.116 13.4184 322.966 13.6498V20.8217L319.496 23.8293V24.0606L322.966 27.0682V37.0163C321.116 38.173 319.034 38.4044 317.183 38.4044C313.712 38.4044 310.705 37.479 308.16 34.7028L317.645 30.0757V13.8812L306.078 18.9709C307.235 15.9633 309.779 13.8812 312.093 12.2617L311.862 11.799C304.921 13.6498 298.675 19.8963 298.675 27.7622C298.675 37.0163 306.309 43.9568 314.869 43.9568C324.123 43.9568 330.138 36.5536 330.138 28.919H329.676C328.288 31.9266 326.205 34.7028 323.661 36.0909V26.6055L327.362 23.5979V23.3666L323.892 20.359V13.4184C327.362 13.4184 330.832 11.1049 330.832 6.70926ZM310.705 32.1579L307.929 33.546C306.309 31.4639 305.384 28.6876 305.384 24.7547C305.384 23.1352 305.615 21.2844 306.078 19.8963L310.936 17.8141L310.705 32.1579ZM338.93 4.39575H338.698L334.071 8.32872V8.56007L338.004 12.9557H338.467L343.094 9.02277V8.79142L338.93 4.39575ZM345.87 38.6357L344.019 39.7925L341.706 37.479V21.5157L344.019 19.8963L343.557 19.4336L341.937 20.8217L337.773 15.9633L331.064 20.5903L331.526 21.2844L333.146 20.1276L335.228 22.6725V37.7103L332.221 40.0239L332.452 40.4866L334.071 39.3298L339.161 43.9568L346.102 39.3298L345.87 38.6357ZM384.506 38.4044L382.886 39.5612L380.342 37.2476V21.5157L382.655 19.6649L382.192 19.2022L380.342 20.8217L375.021 15.9633L368.08 20.8217L362.759 15.9633L356.281 20.8217L352.117 15.9633L345.408 20.5903L345.639 21.2844L347.258 20.1276L349.572 22.6725V37.7103L347.721 39.5612L353.042 43.9568L358.132 39.3298L356.05 37.2476V21.5157L358.132 20.1276L361.602 23.3666V37.2476L359.751 39.0984L365.072 43.4941L370.162 38.8671L368.08 36.7849V21.5157L369.931 20.359L373.632 23.5979V37.479L372.013 39.0984L377.334 43.9568L384.506 39.0984V38.4044ZM404.634 34.9341L398.85 39.3298L393.066 34.7028V31.9266L403.939 24.5233V24.292L398.387 15.9633L386.357 22.4412V38.173L394.454 43.9568L404.865 35.6282L404.634 34.9341ZM393.066 31.0012V19.6649L393.529 19.4336L398.618 27.5309L393.066 31.0012ZM425.686 28.919L421.291 25.4487C424.298 22.9039 425.455 19.4336 425.455 17.1201V15.732H424.992C424.53 16.8887 423.604 18.0455 421.754 18.0455C419.903 18.0455 418.746 17.1201 417.589 15.732L407.178 21.5157V29.8444L411.111 32.852C407.178 36.3222 406.484 38.6357 406.484 40.4866C406.484 42.8001 407.641 44.4195 409.492 45.1136L409.723 44.6509C409.261 44.1882 408.798 43.9568 408.798 42.8001C408.798 42.106 409.723 40.9493 411.574 40.9493C413.888 40.9493 415.276 42.5687 415.97 43.2628L425.918 37.2476V28.919H425.686ZM423.142 21.9785C421.522 24.7547 418.052 27.5309 415.97 28.919L413.425 26.8368V18.7395C414.35 21.053 416.895 22.9039 419.44 22.9039C421.059 22.9039 421.985 22.6725 423.142 21.9785ZM419.209 40.4866C418.052 37.9417 415.276 36.0909 412.499 36.0909C411.805 36.0909 409.955 36.0909 408.104 37.2476C409.261 35.3968 412.268 32.1579 416.201 29.8444L418.977 32.1579L419.209 40.4866Z" fill="#230B59"/>
</svg>
