<svg width="154" height="120" viewBox="0 0 154 120" fill="none" xmlns="http://www.w3.org/2000/svg">
<path d="M2.80854 68.38C2.80854 77.0157 9.81325 84.0169 18.4537 84.0169H69.6269L27.0052 55.2831C24.5472 53.6765 21.6093 52.7424 18.4537 52.7424C9.81325 52.7424 2.80854 59.7444 2.80854 68.38Z" fill="#230B59"/>
<path d="M18.1828 27.2083C13.482 34.448 15.5397 44.1274 22.7779 48.8288L67.3619 79.077L45.5804 29.3945C44.3559 26.6181 42.3466 24.2607 39.7999 22.6127C32.5625 17.9113 22.8836 19.9694 18.1828 27.2083Z" fill="#230B59"/>
<path d="M151.441 68.3792C151.441 77.0244 144.42 84.032 135.759 84.032V84.0328H84.4689L127.189 55.2696C129.653 53.6614 132.597 52.7265 135.759 52.7265C144.42 52.7265 151.441 59.7341 151.441 68.3792Z" fill="#230B59"/>
<path d="M136.041 27.1869C140.752 34.4329 138.69 44.1227 131.435 48.828L86.7514 79.1056L108.582 29.3762C109.81 26.5958 111.824 24.2358 114.376 22.5872C121.63 17.8811 131.33 19.9408 136.041 27.1869Z" fill="#230B59"/>
<path d="M82.6019 19.8472C82.8807 19.694 83.1309 19.5565 83.3233 19.4074C86.2978 18.1704 85.0576 17.544 82.7021 17.4272L78.5455 17.4343C78.2261 14.6567 78.6608 11.8444 79.8039 9.29314C83.3289 1.39284 92.6065 -2.15983 100.525 1.35786C108.442 4.87476 112.003 14.1305 108.477 22.0308L86.4217 72.4788L79.8087 26.1987C79.2589 21.6835 81.2619 20.5832 82.6019 19.8472Z" fill="#230B59"/>
<path d="M53.6608 1.38886C45.7599 4.90258 42.2063 14.1503 45.7242 22.0435L67.7337 72.447L75.4964 18.1625C75.9817 15.1643 75.579 12.0896 74.338 9.31778C70.8202 1.42464 61.5624 -2.12485 53.6608 1.38886Z" fill="#230B59"/>
<path d="M0 106.017C0 110.975 4.04903 120 19.5097 120C33.764 120 38.266 113.453 38.266 110.45H27.2305C27.2305 110.45 26.7064 114.417 20.4812 114.417C14.2521 114.417 12.5675 109.212 12.5675 106.202C12.5675 103.204 14.2521 98.2804 20.4812 98.2804C26.7064 98.2804 27.2305 101.734 27.2305 101.734H38.266C38.266 98.7279 34.9628 92.2728 19.5097 92.2728C4.04903 92.2728 0 101.884 0 106.017Z" fill="#230B59"/>
<path d="M115.734 106.017C115.734 110.975 119.787 120 135.243 120C149.496 120 154 113.453 154 110.45H142.972C142.972 110.45 142.446 114.417 136.219 114.417C129.989 114.417 128.303 109.212 128.303 106.202C128.303 103.204 129.989 98.2804 136.219 98.2804C142.446 98.2804 142.972 101.734 142.972 101.734H154C154 98.7279 150.7 92.2728 135.243 92.2728C119.787 92.2728 115.734 101.884 115.734 106.017Z" fill="#230B59"/>
<path d="M68.4259 109.52V92.7356H78.3311V119.321H63.6584L51.0402 102.343V119.321H41.1358V92.7356H55.583L68.4259 109.52Z" fill="#230B59"/>
<path fill-rule="evenodd" clip-rule="evenodd" d="M108.27 105.187C110.073 105.187 113.843 103.092 113.843 99.0327C113.843 93.2526 103.091 92.7356 101.441 92.7356H81.6305V119.321H101.441C110.969 119.321 114.797 116.308 114.797 111.276C114.797 106.244 108.27 105.187 108.27 105.187ZM100.164 112.97V113.005H91.9117V108.123H100.164V108.139C101.927 108.139 103.351 109.223 103.351 110.558C103.351 111.89 101.927 112.97 100.164 112.97ZM91.9875 97.9063H99.9393V97.9175C101.287 97.9175 102.379 98.8048 102.379 99.8968C102.379 100.993 101.287 101.873 99.9393 101.873V101.885H91.9875V97.9063Z" fill="#230B59"/>
</svg>
